<mxfile host="app.diagrams.net" modified="2024-02-13T10:47:06.658Z" agent="Mozilla/5.0 (Windows NT 10.0; Win64; x64) AppleWebKit/537.36 (KHTML, like Gecko) Chrome/120.0.0.0 YaBrowser/24.1.0.0 Safari/537.36" etag="XgQKNtp4Aqw4f8cR9q16" version="23.1.1" type="device">
  <diagram name="Страница — 1" id="GhDr2dGqzxno__dlS03G">
    <mxGraphModel dx="1002" dy="575" grid="1" gridSize="10" guides="1" tooltips="1" connect="1" arrows="1" fold="1" page="1" pageScale="1" pageWidth="827" pageHeight="1169" math="0" shadow="0">
      <root>
        <mxCell id="0" />
        <mxCell id="1" parent="0" />
        <mxCell id="4RSTQA62EWs_jjjkyT1Q-1" value="Программный комплекс «Дирекция института»" style="rounded=0;whiteSpace=wrap;html=1;" vertex="1" parent="1">
          <mxGeometry x="360" y="180" width="120" height="60" as="geometry" />
        </mxCell>
        <mxCell id="4RSTQA62EWs_jjjkyT1Q-2" value="Подсистема&lt;br&gt;&quot;Расписание занятий&quot;" style="rounded=0;whiteSpace=wrap;html=1;" vertex="1" parent="1">
          <mxGeometry x="170" y="290" width="120" height="60" as="geometry" />
        </mxCell>
        <mxCell id="4RSTQA62EWs_jjjkyT1Q-3" value="Подсистема&lt;br&gt;&quot;Задачи&quot;" style="rounded=0;whiteSpace=wrap;html=1;" vertex="1" parent="1">
          <mxGeometry x="360" y="290" width="120" height="60" as="geometry" />
        </mxCell>
        <mxCell id="4RSTQA62EWs_jjjkyT1Q-4" value="Подсистема&lt;br&gt;&quot;Администрирование пользователей&quot;" style="rounded=0;whiteSpace=wrap;html=1;" vertex="1" parent="1">
          <mxGeometry x="530" y="290" width="120" height="60" as="geometry" />
        </mxCell>
        <mxCell id="4RSTQA62EWs_jjjkyT1Q-5" value="" style="endArrow=none;html=1;rounded=0;exitX=0.5;exitY=1;exitDx=0;exitDy=0;" edge="1" parent="1" source="4RSTQA62EWs_jjjkyT1Q-1" target="4RSTQA62EWs_jjjkyT1Q-3">
          <mxGeometry width="50" height="50" relative="1" as="geometry">
            <mxPoint x="490" y="430" as="sourcePoint" />
            <mxPoint x="540" y="380" as="targetPoint" />
          </mxGeometry>
        </mxCell>
        <mxCell id="4RSTQA62EWs_jjjkyT1Q-6" value="" style="endArrow=none;html=1;rounded=0;entryX=0.5;entryY=0;entryDx=0;entryDy=0;" edge="1" parent="1" target="4RSTQA62EWs_jjjkyT1Q-4">
          <mxGeometry width="50" height="50" relative="1" as="geometry">
            <mxPoint x="420" y="240" as="sourcePoint" />
            <mxPoint x="430" y="300" as="targetPoint" />
            <Array as="points">
              <mxPoint x="420" y="270" />
              <mxPoint x="590" y="270" />
            </Array>
          </mxGeometry>
        </mxCell>
        <mxCell id="4RSTQA62EWs_jjjkyT1Q-7" value="" style="endArrow=none;html=1;rounded=0;entryX=0.5;entryY=0;entryDx=0;entryDy=0;exitX=0.5;exitY=1;exitDx=0;exitDy=0;" edge="1" parent="1" source="4RSTQA62EWs_jjjkyT1Q-1" target="4RSTQA62EWs_jjjkyT1Q-2">
          <mxGeometry width="50" height="50" relative="1" as="geometry">
            <mxPoint x="430" y="250" as="sourcePoint" />
            <mxPoint x="600" y="300" as="targetPoint" />
            <Array as="points">
              <mxPoint x="420" y="270" />
              <mxPoint x="230" y="270" />
            </Array>
          </mxGeometry>
        </mxCell>
        <mxCell id="4RSTQA62EWs_jjjkyT1Q-11" value="" style="endArrow=none;html=1;rounded=0;entryX=0.5;entryY=1;entryDx=0;entryDy=0;" edge="1" parent="1" target="4RSTQA62EWs_jjjkyT1Q-2">
          <mxGeometry width="50" height="50" relative="1" as="geometry">
            <mxPoint x="230" y="640" as="sourcePoint" />
            <mxPoint x="540" y="380" as="targetPoint" />
          </mxGeometry>
        </mxCell>
        <mxCell id="4RSTQA62EWs_jjjkyT1Q-12" value="Добавление занятия" style="edgeLabel;html=1;align=center;verticalAlign=middle;resizable=0;points=[];" vertex="1" connectable="0" parent="4RSTQA62EWs_jjjkyT1Q-11">
          <mxGeometry x="0.4993" y="-1" relative="1" as="geometry">
            <mxPoint x="-71" y="-13" as="offset" />
          </mxGeometry>
        </mxCell>
        <mxCell id="4RSTQA62EWs_jjjkyT1Q-14" value="Отображения расписания" style="edgeLabel;html=1;align=center;verticalAlign=middle;resizable=0;points=[];" vertex="1" connectable="0" parent="4RSTQA62EWs_jjjkyT1Q-11">
          <mxGeometry x="0.0234" relative="1" as="geometry">
            <mxPoint x="-80" y="-2" as="offset" />
          </mxGeometry>
        </mxCell>
        <mxCell id="4RSTQA62EWs_jjjkyT1Q-24" value="Добавление новых предметов" style="edgeLabel;html=1;align=center;verticalAlign=middle;resizable=0;points=[];" vertex="1" connectable="0" parent="4RSTQA62EWs_jjjkyT1Q-11">
          <mxGeometry x="-0.1862" y="1" relative="1" as="geometry">
            <mxPoint x="-89" y="8" as="offset" />
          </mxGeometry>
        </mxCell>
        <mxCell id="4RSTQA62EWs_jjjkyT1Q-28" value="Удаление занаятия" style="edgeLabel;html=1;align=center;verticalAlign=middle;resizable=0;points=[];" vertex="1" connectable="0" parent="4RSTQA62EWs_jjjkyT1Q-11">
          <mxGeometry x="-0.469" y="1" relative="1" as="geometry">
            <mxPoint x="-69" as="offset" />
          </mxGeometry>
        </mxCell>
        <mxCell id="4RSTQA62EWs_jjjkyT1Q-13" value="Редактирование занятия" style="edgeLabel;html=1;align=center;verticalAlign=middle;resizable=0;points=[];" vertex="1" connectable="0" parent="1">
          <mxGeometry x="150" y="450" as="geometry" />
        </mxCell>
        <mxCell id="4RSTQA62EWs_jjjkyT1Q-15" value="" style="endArrow=none;html=1;rounded=0;entryX=0.5;entryY=1;entryDx=0;entryDy=0;" edge="1" parent="1" target="4RSTQA62EWs_jjjkyT1Q-3">
          <mxGeometry width="50" height="50" relative="1" as="geometry">
            <mxPoint x="420" y="640" as="sourcePoint" />
            <mxPoint x="440" y="420" as="targetPoint" />
          </mxGeometry>
        </mxCell>
        <mxCell id="4RSTQA62EWs_jjjkyT1Q-16" value="Добавления задачи" style="edgeLabel;html=1;align=center;verticalAlign=middle;resizable=0;points=[];" vertex="1" connectable="0" parent="4RSTQA62EWs_jjjkyT1Q-15">
          <mxGeometry x="0.7379" y="1" relative="1" as="geometry">
            <mxPoint x="-69" y="22" as="offset" />
          </mxGeometry>
        </mxCell>
        <mxCell id="4RSTQA62EWs_jjjkyT1Q-18" value="Отображение задач" style="edgeLabel;html=1;align=center;verticalAlign=middle;resizable=0;points=[];" vertex="1" connectable="0" parent="4RSTQA62EWs_jjjkyT1Q-15">
          <mxGeometry x="0.1586" relative="1" as="geometry">
            <mxPoint x="-70" y="18" as="offset" />
          </mxGeometry>
        </mxCell>
        <mxCell id="4RSTQA62EWs_jjjkyT1Q-26" value="Удаление задач" style="edgeLabel;html=1;align=center;verticalAlign=middle;resizable=0;points=[];" vertex="1" connectable="0" parent="4RSTQA62EWs_jjjkyT1Q-15">
          <mxGeometry x="-0.2828" y="-3" relative="1" as="geometry">
            <mxPoint x="-63" y="-6" as="offset" />
          </mxGeometry>
        </mxCell>
        <mxCell id="4RSTQA62EWs_jjjkyT1Q-17" value="Редактирование задачи" style="edgeLabel;html=1;align=center;verticalAlign=middle;resizable=0;points=[];" vertex="1" connectable="0" parent="1">
          <mxGeometry x="340" y="450" as="geometry" />
        </mxCell>
        <mxCell id="4RSTQA62EWs_jjjkyT1Q-19" value="" style="endArrow=none;html=1;rounded=0;entryX=0.5;entryY=1;entryDx=0;entryDy=0;" edge="1" parent="1" target="4RSTQA62EWs_jjjkyT1Q-4">
          <mxGeometry width="50" height="50" relative="1" as="geometry">
            <mxPoint x="590" y="640" as="sourcePoint" />
            <mxPoint x="440" y="420" as="targetPoint" />
          </mxGeometry>
        </mxCell>
        <mxCell id="4RSTQA62EWs_jjjkyT1Q-20" value="Регистрация пользователя" style="edgeLabel;html=1;align=center;verticalAlign=middle;resizable=0;points=[];" vertex="1" connectable="0" parent="4RSTQA62EWs_jjjkyT1Q-19">
          <mxGeometry x="0.7241" relative="1" as="geometry">
            <mxPoint x="-80" y="20" as="offset" />
          </mxGeometry>
        </mxCell>
        <mxCell id="4RSTQA62EWs_jjjkyT1Q-21" value="Добавление &lt;br&gt;пользователя в группу&lt;br&gt;&amp;nbsp;преподавателей, студентов&lt;br&gt;&amp;nbsp;или администраторов" style="edgeLabel;html=1;align=center;verticalAlign=middle;resizable=0;points=[];" vertex="1" connectable="0" parent="4RSTQA62EWs_jjjkyT1Q-19">
          <mxGeometry x="0.3724" y="3" relative="1" as="geometry">
            <mxPoint x="-77" y="29" as="offset" />
          </mxGeometry>
        </mxCell>
        <mxCell id="4RSTQA62EWs_jjjkyT1Q-22" value="Редактирование &lt;br&gt;данных пользователя" style="edgeLabel;html=1;align=center;verticalAlign=middle;resizable=0;points=[];" vertex="1" connectable="0" parent="4RSTQA62EWs_jjjkyT1Q-19">
          <mxGeometry x="-0.1241" relative="1" as="geometry">
            <mxPoint x="-70" y="27" as="offset" />
          </mxGeometry>
        </mxCell>
        <mxCell id="4RSTQA62EWs_jjjkyT1Q-23" value="Создание групп" style="edgeLabel;html=1;align=center;verticalAlign=middle;resizable=0;points=[];" vertex="1" connectable="0" parent="4RSTQA62EWs_jjjkyT1Q-19">
          <mxGeometry x="-0.4621" relative="1" as="geometry">
            <mxPoint x="-50" y="48" as="offset" />
          </mxGeometry>
        </mxCell>
      </root>
    </mxGraphModel>
  </diagram>
</mxfile>
